<svg width="147" height="48" viewBox="0 0 147 48" fill="none" xmlns="http://www.w3.org/2000/svg">
<g clip-path="url(#clip0_3215_21395)">
<mask id="mask0_3215_21395" style="mask-type:luminance" maskUnits="userSpaceOnUse" x="0" y="0" width="147" height="48">
<path d="M147 0H0V47.8604H147V0Z" fill="white"/>
</mask>
<g mask="url(#mask0_3215_21395)">
<path d="M65.034 18.8042V29.9609H62.8134V22.7406L59.9541 26.3428H58.3419L55.4829 22.7406V29.9609H53.2623V18.8042H55.0571L59.1482 24.0478L63.2396 18.8042H65.034Z" fill="#1A75BC"/>
<path d="M67.3313 18.8042H75.6963L76.0007 20.9557H69.704V23.2825H74.7536V25.3551H69.704V27.8094H76.1525L75.8485 29.9609H67.3313V18.8042Z" fill="#1A75BC"/>
<path d="M85.5827 24.3824C85.5827 22.0558 84.5638 20.9557 82.4043 20.9557H80.2291V27.8094H82.4043C84.5638 27.8094 85.5827 26.7093 85.5827 24.3824ZM88.0162 24.3824C88.0162 28.176 86.2214 29.9609 82.4043 29.9609H77.8567V18.8042H82.4043C86.2214 18.8042 88.0162 20.5891 88.0162 24.3824Z" fill="#1A75BC"/>
<path d="M99.971 18.8042V29.9609H98.1766L92.0625 22.6291V29.9609H89.8419V18.8042H91.6367L97.7505 26.136V18.8042H99.971Z" fill="#1A75BC"/>
<path d="M102.268 18.8042H110.633L110.938 20.9557H104.641V23.2825H109.691V25.3551H104.641V27.8094H111.09L110.786 29.9609H102.268V18.8042Z" fill="#1A75BC"/>
<path d="M112.657 25.02V18.8037H115.029V25.02C115.029 26.9641 115.835 27.8888 117.554 27.8888C119.257 27.8888 120.064 26.9641 120.064 25.02V18.8037H122.436V25.02C122.436 28.4944 120.87 30.1199 117.554 30.1199C114.223 30.1199 112.657 28.4944 112.657 25.02Z" fill="#1A75BC"/>
<path d="M127.045 24.6693H129.326C131.106 24.6693 131.775 24.0478 131.775 22.8205C131.775 21.5934 131.106 20.9557 129.326 20.9557H127.045V24.6693ZM131.456 29.9609L129.402 26.8371H127.045V29.9609H124.673V18.8042H129.479C132.657 18.8042 134.209 20.3824 134.209 22.8205C134.209 24.5259 133.448 25.8168 131.897 26.4383L134.315 29.9609H131.456Z" fill="#1A75BC"/>
<path d="M144.566 24.3827C144.566 21.9286 143.608 20.8767 141.266 20.8767C138.924 20.8767 137.951 21.9286 137.951 24.3827C137.951 26.837 138.924 27.8893 141.266 27.8893C143.608 27.8893 144.566 26.837 144.566 24.3827ZM135.518 24.3827C135.518 20.4779 137.358 18.645 141.266 18.645C145.16 18.645 147 20.4779 147 24.3827C147 28.2877 145.16 30.1203 141.266 30.1203C137.358 30.1203 135.518 28.2877 135.518 24.3827Z" fill="#1A75BC"/>
<path fill-rule="evenodd" clip-rule="evenodd" d="M23.1915 27.4373C23.1408 28.519 23.0885 29.4218 23.035 30.043C23.0287 30.1044 23.0184 30.162 23.0202 30.215C22.89 36.0566 21.9785 38.116 19.8904 38.5583C19.2084 38.6413 18.4911 38.3747 18.0628 37.7282C18.033 37.6846 18.0027 37.6364 17.9767 37.5885C18.6727 36.8119 19.3976 35.6513 19.5823 34.0511C19.3644 35.0003 18.8928 35.7938 18.3552 36.4347C18.4971 35.8962 18.5547 35.1688 18.2478 34.3631C18.5453 35.5112 18.0261 36.596 17.7205 37.1032C17.5984 37.2213 17.4754 37.3275 17.3523 37.429C14.7761 37.1455 13.827 35.3737 13.9426 33.2708C10.6104 32.155 10.5437 29.3241 11.8632 27.6472C11.8503 27.6394 11.8378 27.6275 11.8253 27.6196C12.0028 27.4345 12.1966 27.249 12.4064 27.067C12.8542 26.9142 13.5615 26.7403 14.3743 26.8042C13.7381 26.6655 13.2208 26.6698 12.8514 26.7143C13.4525 26.2748 14.1664 25.9096 14.9962 25.736C13.4034 25.8895 12.228 26.5796 11.443 27.2572C10.2366 25.8569 10.1859 22.8869 11.9587 21.6351C11.139 19.7092 11.8253 17.4857 13.6999 16.5976C13.6993 16.5936 13.6993 16.5936 13.6993 16.5895C13.8377 16.581 13.9804 16.5807 14.131 16.5839C14.3421 16.8053 14.5287 17.0359 14.6724 17.3329C14.9699 17.9631 15.1743 18.8697 15.2736 20.061C15.6371 22.7397 16.2987 24.6875 17.2565 25.8347C18.5954 27.4301 21.2602 27.5567 23.1915 27.4373Z" fill="#1A75BC"/>
<path fill-rule="evenodd" clip-rule="evenodd" d="M23.6214 10.6526C23.6352 11.4633 23.6126 13.2824 23.57 15.5097C23.5021 18.7281 23.3894 22.8124 23.2585 25.9719C23.2569 26.0452 23.251 26.1188 23.2494 26.1921C21.7158 26.2742 20.5495 25.9938 19.7633 25.3588C17.9519 23.8922 18.5897 20.5491 17.7875 18.4026C17.2484 16.9726 15.9239 15.6945 14.3721 15.4712C14.0656 15.4282 13.8226 15.4768 13.6836 15.583C13.8567 11.2159 17.7337 11.4091 17.7337 11.4091C17.7337 11.4091 18.1545 10.1765 19.3346 9.62513C21.346 8.94881 22.5581 9.39051 23.2394 9.91897C23.4648 10.0953 23.6079 10.3638 23.6214 10.6526Z" fill="#1A75BC"/>
<path fill-rule="evenodd" clip-rule="evenodd" d="M25.3657 27.4373C25.4164 28.519 25.469 29.4218 25.5223 30.043C25.5289 30.1044 25.5392 30.162 25.5373 30.215C25.6672 36.0566 26.579 38.116 28.6668 38.5583C29.3491 38.6413 30.0664 38.3747 30.4948 37.7282C30.5245 37.6846 30.5549 37.6364 30.5809 37.5885C29.8845 36.8119 29.16 35.6513 28.9753 34.0511C29.1932 35.0003 29.6647 35.7938 30.2023 36.4347C30.0605 35.8962 30.0029 35.1688 30.3094 34.3631C30.012 35.5112 30.5314 36.596 30.837 37.1032C30.9591 37.2213 31.0822 37.3275 31.2052 37.429C33.7812 37.1455 34.7305 35.3737 34.615 33.2708C37.9471 32.155 38.0138 29.3241 36.6944 27.6472C36.7072 27.6394 36.7197 27.6275 36.7322 27.6196C36.5547 27.4345 36.3609 27.249 36.1511 27.067C35.7034 26.9142 34.996 26.7403 34.1832 26.8042C34.8194 26.6655 35.3367 26.6698 35.7059 26.7143C35.1047 26.2748 34.3914 25.9096 33.5614 25.736C35.1542 25.8895 36.3296 26.5796 37.1145 27.2572C38.321 25.8569 38.3717 22.8869 36.5985 21.6351C37.4186 19.7092 36.7322 17.4857 34.8577 16.5976C34.858 16.5936 34.858 16.5936 34.858 16.5895C34.7199 16.581 34.5771 16.5807 34.4265 16.5839C34.2155 16.8053 34.0289 17.0359 33.8848 17.3329C33.5874 17.9631 33.3832 18.8697 33.2836 20.061C32.9204 22.7397 32.2588 24.6875 31.301 25.8347C29.9622 27.4301 27.2973 27.5567 25.3657 27.4373Z" fill="#1A75BC"/>
<path fill-rule="evenodd" clip-rule="evenodd" d="M24.9362 10.6526C24.9224 11.4633 24.9449 13.2824 24.9875 15.5097C25.0555 18.7281 25.1682 22.8124 25.2991 25.9719C25.3006 26.0452 25.3066 26.1188 25.3081 26.1921C26.8418 26.2742 28.0081 25.9938 28.7943 25.3588C30.6057 23.8922 29.9675 20.5491 30.77 18.4026C31.3092 16.9726 32.6337 15.6945 34.1851 15.4712C34.492 15.4282 34.7349 15.4768 34.874 15.583C34.7008 11.2159 30.8239 11.4091 30.8239 11.4091C30.8239 11.4091 30.4031 10.1765 29.223 9.62513C27.2115 8.94881 25.9995 9.39051 25.3182 9.91897C25.0927 10.0953 24.9496 10.3638 24.9362 10.6526Z" fill="#1A75BC"/>
<path d="M14.5512 4.5808C14.5165 4.5808 14.4814 4.56733 14.4551 4.5407L13.5753 3.66076C13.5224 3.60782 13.5224 3.52167 13.5753 3.46842C13.6282 3.41548 13.7146 3.41548 13.7675 3.46842L14.6474 4.34836C14.7006 4.40161 14.7006 4.48776 14.6474 4.5407C14.6207 4.56733 14.5857 4.5808 14.5512 4.5808Z" fill="#37A5DD"/>
<path d="M13.8533 5.41859C13.8185 5.41859 13.7835 5.40513 13.7568 5.3785L12.4055 4.02647C12.3522 3.97353 12.3522 3.88739 12.4055 3.83414C12.4584 3.7812 12.5448 3.7812 12.5977 3.83414L13.9494 5.18616C14.0026 5.23941 14.0026 5.32556 13.9494 5.3785C13.9228 5.40513 13.8877 5.41859 13.8533 5.41859Z" fill="#37A5DD"/>
<path d="M13.1776 6.37713C13.1394 6.37713 13.1015 6.36115 13.0746 6.33014L11.4211 4.42208C11.3716 4.36507 11.3775 4.27923 11.4342 4.23005C11.4915 4.18087 11.577 4.18682 11.6261 4.24384L13.2803 6.15189C13.3295 6.20859 13.3232 6.29474 13.2665 6.34392C13.2409 6.36648 13.2092 6.37713 13.1776 6.37713Z" fill="#37A5DD"/>
<path d="M12.5016 7.73083C12.4631 7.73083 12.4246 7.71455 12.3977 7.68259L10.2284 5.11325C10.1802 5.05561 10.1871 4.96946 10.2447 4.92122C10.302 4.87267 10.3878 4.88019 10.4363 4.93751L12.6059 7.50717C12.6541 7.5645 12.6469 7.65033 12.5893 7.69888C12.5639 7.7205 12.5326 7.73083 12.5016 7.73083Z" fill="#37A5DD"/>
<path d="M11.6468 8.7834C11.6105 8.7834 11.5748 8.76931 11.5479 8.7408L8.89492 5.94872C8.84357 5.89421 8.84544 5.80807 8.90024 5.75639C8.95472 5.70438 9.04083 5.70657 9.09218 5.76108L11.7452 8.55378C11.7968 8.60797 11.7946 8.69412 11.7401 8.74613C11.7142 8.77119 11.6803 8.7834 11.6468 8.7834Z" fill="#37A5DD"/>
<path d="M10.6374 9.88746C10.6026 9.88746 10.5675 9.87431 10.5412 9.84768L7.66719 6.97228C7.61427 6.91933 7.61427 6.83319 7.66719 6.77994C7.72042 6.727 7.80652 6.727 7.85944 6.77994L10.7335 9.65533C10.7867 9.70859 10.7867 9.79474 10.7335 9.84768C10.7069 9.87431 10.6721 9.88746 10.6374 9.88746Z" fill="#37A5DD"/>
<path d="M9.57875 10.9242C9.54399 10.9242 9.50924 10.9108 9.48263 10.8841L6.68436 8.07547C6.63145 8.02222 6.63145 7.93606 6.68467 7.88281C6.73822 7.82987 6.82432 7.83018 6.87724 7.88313L9.67519 10.6918C9.72842 10.7451 9.72811 10.8312 9.67519 10.8845C9.64826 10.9111 9.6135 10.9242 9.57875 10.9242Z" fill="#37A5DD"/>
<path d="M8.37481 11.8173C8.33943 11.8173 8.30436 11.8032 8.27744 11.7762L5.80825 9.25452C5.75565 9.20095 5.7569 9.1148 5.81044 9.06217C5.8643 9.00954 5.9504 9.0108 6.00269 9.06437L8.47188 11.5861C8.52448 11.6397 8.52354 11.7258 8.46968 11.7784C8.44338 11.8041 8.40894 11.8173 8.37481 11.8173Z" fill="#37A5DD"/>
<path d="M7.14023 12.6006C7.10548 12.6006 7.07041 12.5872 7.04411 12.5609L5.00044 10.5162C4.94753 10.4633 4.94753 10.3771 5.00044 10.3239C5.05367 10.2709 5.13977 10.2709 5.19269 10.3239L7.23636 12.3685C7.28959 12.4218 7.28959 12.5079 7.23636 12.5609C7.20975 12.5872 7.17499 12.6006 7.14023 12.6006Z" fill="#37A5DD"/>
<path d="M5.98233 13.4643C5.94788 13.4643 5.91281 13.4508 5.8862 13.4242L4.43306 11.9703C4.38014 11.9174 4.38014 11.8312 4.43306 11.778C4.48629 11.725 4.57239 11.725 4.62531 11.778L6.07876 13.2318C6.13199 13.2851 6.13199 13.3712 6.07876 13.4242C6.05215 13.4508 6.01708 13.4643 5.98233 13.4643Z" fill="#37A5DD"/>
<path d="M17.594 3.32431C17.5186 3.32431 17.4578 3.26355 17.4578 3.18836V1.94504C17.4578 1.87017 17.5186 1.80908 17.594 1.80908C17.6692 1.80908 17.7299 1.87017 17.7299 1.94504V3.18836C17.7299 3.26355 17.6692 3.32431 17.594 3.32431Z" fill="#37A5DD"/>
<path d="M18.7332 3.32367C18.7288 3.32367 18.7244 3.32336 18.7203 3.32305C18.6455 3.31584 18.5907 3.24943 18.5976 3.17456L18.7829 1.24928C18.7904 1.17472 18.8565 1.1199 18.9313 1.1271C19.0062 1.13431 19.061 1.20103 19.0538 1.27559L18.8687 3.20055C18.8618 3.27104 18.8027 3.32367 18.7332 3.32367Z" fill="#37A5DD"/>
<path d="M19.9771 3.63113C19.9702 3.63113 19.9637 3.63081 19.9565 3.62956C19.8823 3.61828 19.8312 3.54906 19.8425 3.47481L20.2605 0.689321C20.2718 0.615079 20.3413 0.564013 20.4152 0.575291C20.4894 0.586568 20.541 0.655491 20.5298 0.730046L20.1111 3.51522C20.1011 3.58257 20.0432 3.63113 19.9771 3.63113Z" fill="#37A5DD"/>
<path d="M21.3492 3.95296C21.3429 3.95296 21.336 3.95233 21.3298 3.95139C21.2552 3.94074 21.2039 3.87183 21.2142 3.79727L21.7011 0.405002C21.7117 0.331073 21.7806 0.27907 21.8548 0.290034C21.9294 0.300685 21.9807 0.369601 21.9704 0.443843L21.4838 3.83612C21.4741 3.9041 21.4159 3.95296 21.3492 3.95296Z" fill="#37A5DD"/>
<path d="M23.6693 0.160334L23.6646 0.209204L23.2964 3.92883C23.2898 3.999 23.2307 4.05194 23.1612 4.05194C23.1568 4.05194 23.1521 4.05132 23.1477 4.05101C23.0732 4.0438 23.0184 3.97708 23.0259 3.90221L23.3951 0.168163L23.3988 0.133394C23.3997 0.123056 23.4019 0.11366 23.4054 0.103949C23.4157 0.0904794 23.432 0.0807726 23.4505 0.078893C23.4505 0.078893 23.5143 0.0726257 23.6393 0.0610352C23.6612 0.0873489 23.6731 0.123056 23.6693 0.160334Z" fill="#37A5DD"/>
<path d="M24.7793 4.05216C24.7746 4.05216 24.7702 4.05152 24.7658 4.05121C24.691 4.04401 24.6365 3.9776 24.6434 3.90242L25.0166 0.133607C25.0242 0.0587383 25.0905 0.00391355 25.1654 0.0114317C25.2402 0.0189499 25.2947 0.0856759 25.2872 0.160231L24.9146 3.92936C24.9074 3.99953 24.8482 4.05216 24.7793 4.05216Z" fill="#37A5DD"/>
<path d="M26.3633 4.05195C26.3586 4.05195 26.3542 4.05132 26.3498 4.05101C26.275 4.04381 26.2205 3.97739 26.2274 3.90221L26.5731 0.410635C26.5806 0.33608 26.647 0.281257 26.7218 0.288776C26.7966 0.295981 26.8511 0.362393 26.8439 0.437575L26.4985 3.92915C26.4913 3.99932 26.4322 4.05195 26.3633 4.05195Z" fill="#37A5DD"/>
<path d="M27.7532 3.89329C27.7488 3.89329 27.7441 3.89297 27.7398 3.89266C27.6649 3.88514 27.6104 3.81873 27.6176 3.74386L27.9295 0.594047C27.9364 0.519178 28.0028 0.464363 28.0782 0.471881C28.1527 0.479086 28.2075 0.546116 28.2 0.620671L27.8885 3.7708C27.8813 3.84065 27.8221 3.89329 27.7532 3.89329Z" fill="#37A5DD"/>
<path d="M29.2141 3.53085C29.2088 3.53085 29.2041 3.53053 29.1988 3.53022C29.124 3.52144 29.0704 3.4541 29.0789 3.37954L29.3344 1.10528C29.3431 1.03073 29.4105 0.976535 29.485 0.985306C29.5595 0.993764 29.6134 1.0608 29.6046 1.13598L29.3491 3.40992C29.3413 3.47947 29.2824 3.53085 29.2141 3.53085Z" fill="#37A5DD"/>
<path d="M30.6457 3.27964C30.6416 3.27964 30.6375 3.27965 30.6335 3.27934C30.5586 3.27245 30.5035 3.20603 30.5101 3.13147L30.6354 1.72996C30.6419 1.65477 30.708 1.59965 30.7828 1.60654C30.858 1.61312 30.9131 1.67921 30.9062 1.75408L30.781 3.15591C30.7747 3.22639 30.7155 3.27964 30.6457 3.27964Z" fill="#37A5DD"/>
<path d="M34.5414 4.9961C34.5083 4.9961 34.4748 4.98388 34.4488 4.95913C34.3937 4.90807 34.3908 4.82193 34.4425 4.76711L35.5058 3.63092C35.5572 3.5761 35.6433 3.57328 35.6981 3.62465C35.7529 3.67603 35.7557 3.76218 35.7043 3.817L34.6407 4.95318C34.6141 4.98169 34.5778 4.9961 34.5414 4.9961Z" fill="#37A5DD"/>
<path d="M35.3947 6.1408C35.3599 6.1408 35.3248 6.12733 35.2982 6.10102C35.245 6.04808 35.245 5.96193 35.2982 5.90868L37.0106 4.19547C37.0635 4.14253 37.15 4.14253 37.2029 4.19547C37.2561 4.24872 37.2561 4.33487 37.2029 4.38781L35.4908 6.10102C35.4642 6.12733 35.4291 6.1408 35.3947 6.1408Z" fill="#37A5DD"/>
<path d="M36.1987 7.38937C36.1643 7.38937 36.1292 7.3759 36.1026 7.34927C36.0494 7.29633 36.0494 7.21018 36.1026 7.15693L38.3604 4.89834C38.4134 4.84508 38.4995 4.84508 38.5527 4.89834C38.6059 4.95128 38.6059 5.03742 38.5527 5.09067L36.2949 7.34927C36.2686 7.3759 36.2335 7.38937 36.1987 7.38937Z" fill="#37A5DD"/>
<path d="M37.1068 8.82397C37.0742 8.82397 37.0419 8.81239 37.0156 8.78952C36.9599 8.73908 36.9555 8.65294 37.0056 8.59687L39.5813 5.72867C39.6314 5.67291 39.7172 5.66821 39.7732 5.71833C39.8289 5.76876 39.8336 5.8546 39.7835 5.91067L37.2082 8.77887C37.181 8.80863 37.144 8.82397 37.1068 8.82397Z" fill="#37A5DD"/>
<path d="M38.1275 9.99181C38.0936 9.99181 38.0595 9.97896 38.0332 9.95359C37.9794 9.90159 37.9778 9.81545 38.0301 9.76125L40.8647 6.82477C40.917 6.77058 41.0031 6.76932 41.0572 6.82132C41.1111 6.87363 41.1126 6.95978 41.0604 7.01367L38.2255 9.95015C38.1988 9.97803 38.1635 9.99181 38.1275 9.99181Z" fill="#37A5DD"/>
<path d="M39.4216 11.1658C39.3903 11.1658 39.3587 11.1549 39.333 11.1329C39.276 11.0837 39.2697 10.9979 39.3186 10.9409L41.9002 7.9358C41.9493 7.8791 42.0351 7.87253 42.0921 7.92171C42.1491 7.97058 42.1557 8.0561 42.1068 8.11342L39.5249 11.1185C39.498 11.1498 39.4601 11.1658 39.4216 11.1658Z" fill="#37A5DD"/>
<path d="M40.6358 12.0966C40.6057 12.0966 40.5756 12.0866 40.5503 12.0665C40.492 12.0192 40.483 11.9334 40.5306 11.8748L42.7132 9.18236C42.7602 9.12378 42.846 9.11501 42.9046 9.16199C42.9628 9.20961 42.9716 9.29513 42.9243 9.35371L40.7416 12.0465C40.715 12.0797 40.6755 12.0966 40.6358 12.0966Z" fill="#37A5DD"/>
<path d="M41.8059 12.6768C41.7765 12.6768 41.7464 12.6671 41.7217 12.6473C41.6625 12.6006 41.6525 12.5148 41.6992 12.4559L43.4203 10.2844C43.467 10.2255 43.5528 10.2158 43.6116 10.2622C43.6705 10.3088 43.6802 10.3947 43.6335 10.4536L41.9124 12.6254C41.8855 12.6592 41.846 12.6768 41.8059 12.6768Z" fill="#37A5DD"/>
<path d="M42.8188 13.3736C42.7863 13.3736 42.7537 13.362 42.728 13.3385C42.672 13.288 42.6676 13.2019 42.7177 13.1464L44.0497 11.6713C44.0998 11.6156 44.1859 11.6112 44.2416 11.6616C44.2973 11.7117 44.3014 11.7979 44.2513 11.8536L42.92 13.3288C42.893 13.3582 42.8561 13.3736 42.8188 13.3736Z" fill="#37A5DD"/>
<path d="M44.741 19.1007C44.6946 19.1007 44.6495 19.0772 44.6242 19.0343C44.5854 18.9698 44.6063 18.8862 44.6708 18.8479L46.5651 17.7136C46.6296 17.6751 46.7133 17.6961 46.7521 17.7606C46.7903 17.8251 46.7696 17.9085 46.7051 17.9473L44.8105 19.0813C44.7886 19.0945 44.7648 19.1007 44.741 19.1007Z" fill="#37A5DD"/>
<path d="M44.2616 20.8766C44.2115 20.8766 44.1636 20.849 44.1398 20.8014C44.106 20.7344 44.1333 20.6526 44.2006 20.6191L47.2797 19.0754C47.3473 19.0419 47.4287 19.0691 47.4626 19.1361C47.4961 19.2032 47.4691 19.2849 47.4018 19.3188L44.3224 20.8622C44.303 20.8722 44.282 20.8766 44.2616 20.8766Z" fill="#37A5DD"/>
<path d="M43.9529 22.7633C43.905 22.7633 43.8583 22.738 43.8339 22.6932C43.7972 22.6274 43.8207 22.5447 43.8865 22.508L47.5837 20.453C47.6491 20.4167 47.7321 20.4405 47.7684 20.506C47.805 20.5718 47.7816 20.6545 47.7155 20.6911L44.0186 22.7461C43.9979 22.7577 43.9751 22.7633 43.9529 22.7633Z" fill="#37A5DD"/>
<path d="M43.9804 24.4707C43.9338 24.4707 43.8884 24.4469 43.863 24.4037C43.8251 24.3389 43.8467 24.2558 43.9116 24.2173L47.858 21.8958C47.9231 21.8575 48.0061 21.8795 48.044 21.9443C48.0825 22.0088 48.0609 22.0922 47.9961 22.1304L44.0493 24.4523C44.0277 24.4648 44.0039 24.4707 43.9804 24.4707Z" fill="#37A5DD"/>
<path d="M44.2616 26.1087C44.2168 26.1087 44.173 26.0867 44.147 26.046C44.1066 25.983 44.1248 25.8988 44.1877 25.858L47.9519 23.4394C48.0148 23.399 48.0991 23.4175 48.1398 23.4804C48.1802 23.544 48.1617 23.6283 48.0987 23.6687L44.3349 26.087C44.3123 26.1015 44.2866 26.1087 44.2616 26.1087Z" fill="#37A5DD"/>
<path d="M44.462 27.6025C44.4153 27.6025 44.3702 27.5787 44.3449 27.5357C44.3064 27.4709 44.3276 27.3879 44.3925 27.3494L47.8576 25.2994C47.9225 25.2609 48.0057 25.2825 48.0439 25.347C48.0825 25.4119 48.0609 25.4952 47.9964 25.5334L44.5309 27.5837C44.5092 27.5965 44.4855 27.6025 44.462 27.6025Z" fill="#37A5DD"/>
<path d="M44.7967 29.051C44.7491 29.051 44.7028 29.0259 44.6777 28.9811C44.6414 28.916 44.6646 28.8327 44.73 28.7963L47.4751 27.2576C47.5408 27.221 47.6235 27.2441 47.6604 27.3099C47.6967 27.3754 47.6736 27.4584 47.6081 27.4951L44.8631 29.0335C44.8421 29.0454 44.8193 29.051 44.7967 29.051Z" fill="#37A5DD"/>
<path d="M44.9975 30.7966C44.9533 30.7966 44.9101 30.775 44.8838 30.7352C44.8425 30.6725 44.86 30.5883 44.9226 30.5469L46.6782 29.3935C46.7408 29.3521 46.8251 29.3697 46.8664 29.4326C46.9077 29.4953 46.8902 29.5796 46.8273 29.6209L45.072 30.7743C45.0491 30.7894 45.0234 30.7966 44.9975 30.7966Z" fill="#37A5DD"/>
<path d="M44.2613 35.6499C44.2428 35.6499 44.2237 35.6461 44.2056 35.638L42.3194 34.7878C42.2508 34.7567 42.2205 34.6762 42.2515 34.6083C42.2821 34.5393 42.3623 34.509 42.4309 34.54L44.3174 35.3895C44.3859 35.4205 44.4163 35.5011 44.3856 35.5697C44.3628 35.6201 44.3133 35.6499 44.2613 35.6499Z" fill="#37A5DD"/>
<path d="M43.6739 37.3332C43.6564 37.3332 43.6389 37.3298 43.6219 37.3226L40.3493 35.9605C40.2801 35.9314 40.2472 35.8518 40.2764 35.7826C40.3052 35.7134 40.3847 35.6802 40.4542 35.7093L43.7262 37.0714C43.7954 37.1002 43.8283 37.1797 43.7995 37.2493C43.7779 37.3013 43.7275 37.3332 43.6739 37.3332Z" fill="#37A5DD"/>
<path d="M42.6904 38.7437C42.6754 38.7437 42.6601 38.7412 42.6453 38.7359L38.6303 37.3259C38.5593 37.3015 38.522 37.2234 38.547 37.1527C38.5718 37.0815 38.6494 37.0443 38.7202 37.0693L42.7355 38.4793C42.8063 38.5037 42.8435 38.5817 42.8185 38.6525C42.7991 38.7086 42.7468 38.7437 42.6904 38.7437Z" fill="#37A5DD"/>
<path d="M41.5848 40.149C41.5707 40.149 41.5563 40.1468 41.5419 40.1421L37.2918 38.7365C37.2204 38.713 37.1819 38.636 37.2054 38.5645C37.2289 38.4931 37.3059 38.4546 37.377 38.4781L41.6274 39.8837C41.6991 39.9075 41.7376 39.9842 41.7138 40.0553C41.6954 40.113 41.6418 40.149 41.5848 40.149Z" fill="#37A5DD"/>
<path d="M40.1047 41.5636C40.0897 41.5636 40.0744 41.5611 40.059 41.5558L36.241 40.2053C36.1702 40.1803 36.1332 40.1026 36.1583 40.0318C36.1833 39.9607 36.2613 39.9237 36.3321 39.9488L40.1501 41.2992C40.2209 41.3243 40.2578 41.4023 40.2328 41.4731C40.2131 41.5285 40.1605 41.5636 40.1047 41.5636Z" fill="#37A5DD"/>
<path d="M38.469 42.7139C38.4575 42.7139 38.4456 42.7124 38.434 42.7096L35.2512 41.8622C35.1786 41.8431 35.1351 41.7682 35.1545 41.6962C35.1739 41.6232 35.2484 41.58 35.321 41.5994L38.5041 42.4464C38.5764 42.4655 38.6197 42.5404 38.6002 42.6131C38.5843 42.6739 38.5292 42.7139 38.469 42.7139Z" fill="#37A5DD"/>
<path d="M36.6296 43.6284C36.6239 43.6284 36.618 43.6278 36.612 43.6271L34.1294 43.3101C34.0548 43.3007 34.0019 43.2327 34.0116 43.1579C34.021 43.0833 34.0893 43.031 34.1638 43.0401L36.6468 43.3571C36.7213 43.3668 36.7739 43.4348 36.7645 43.5094C36.7554 43.578 36.6969 43.6284 36.6296 43.6284Z" fill="#37A5DD"/>
<path d="M30.3461 46.1964C30.3304 46.1964 30.3148 46.1939 30.2991 46.1879C30.2287 46.1622 30.1927 46.0839 30.2186 46.0134L30.8154 44.3892C30.8414 44.3187 30.9197 44.2824 30.9901 44.308C31.0606 44.3344 31.0969 44.4127 31.0706 44.4832L30.4741 46.1074C30.4535 46.1625 30.4018 46.1964 30.3461 46.1964Z" fill="#37A5DD"/>
<path d="M29.0191 46.7722C29.0069 46.7722 28.9944 46.7703 28.9818 46.7669C28.9095 46.7462 28.8679 46.671 28.8885 46.5987L29.5595 44.2329C29.5802 44.1606 29.655 44.1189 29.7274 44.1396C29.7997 44.1599 29.842 44.2354 29.8213 44.3075L29.15 46.6732C29.1331 46.733 29.0786 46.7722 29.0191 46.7722Z" fill="#37A5DD"/>
<path d="M27.5033 47.2724C27.4917 47.2724 27.4802 47.2712 27.4686 47.2681C27.3959 47.2489 27.3527 47.1744 27.3718 47.1017L28.1981 43.9472C28.2172 43.8745 28.2917 43.8313 28.3644 43.8501C28.437 43.8692 28.4802 43.9434 28.4611 44.0161L27.6348 47.1709C27.6189 47.232 27.5638 47.2724 27.5033 47.2724Z" fill="#37A5DD"/>
<path d="M26.1538 47.4559C26.1432 47.4559 26.1322 47.4546 26.1216 47.4518C26.0486 47.4339 26.0038 47.3603 26.0217 47.2873L26.9128 43.6623C26.9306 43.5896 27.0042 43.5452 27.0772 43.563C27.1501 43.5809 27.1946 43.6545 27.1767 43.7278L26.2859 47.3522C26.2706 47.4145 26.2152 47.4559 26.1538 47.4559Z" fill="#37A5DD"/>
<path d="M24.6584 47.4563C24.6472 47.4563 24.6362 47.4547 24.6249 47.4522C24.552 47.4334 24.5078 47.3591 24.5266 47.2865L25.5135 43.4099C25.532 43.3372 25.6062 43.2934 25.6789 43.3118C25.7518 43.3303 25.7956 43.4046 25.7775 43.4772L24.7899 47.3538C24.7743 47.4152 24.7192 47.4563 24.6584 47.4563Z" fill="#37A5DD"/>
<path d="M22.9106 47.6016C22.8975 47.6016 22.884 47.5997 22.8709 47.5957C22.7988 47.5737 22.7585 47.4976 22.7804 47.4256L24.0131 43.4036C24.035 43.3319 24.1111 43.2915 24.1828 43.3137C24.2545 43.3357 24.2949 43.4118 24.273 43.4835L23.0406 47.5054C23.0227 47.564 22.9689 47.6016 22.9106 47.6016Z" fill="#37A5DD"/>
<path d="M21.0254 47.1835C21.0088 47.1835 20.9922 47.1807 20.9759 47.1741C20.9061 47.1472 20.8713 47.0683 20.8986 46.9984L22.264 43.4789C22.2913 43.4088 22.3699 43.3743 22.44 43.4012C22.5101 43.4285 22.5449 43.5071 22.5177 43.5773L21.1519 47.0968C21.1312 47.1503 21.0795 47.1835 21.0254 47.1835Z" fill="#37A5DD"/>
<path d="M19.5325 46.7047C19.5121 46.7047 19.4915 46.7003 19.472 46.6906C19.4047 46.6568 19.3772 46.5753 19.4104 46.508L20.7602 43.7855C20.7937 43.7178 20.8751 43.6902 20.9427 43.7237C21.0097 43.7569 21.0373 43.8387 21.0038 43.906L19.6543 46.6289C19.6308 46.6771 19.5823 46.7047 19.5325 46.7047Z" fill="#37A5DD"/>
<path d="M18.0831 46.0458C18.0593 46.0458 18.0352 46.0395 18.013 46.0264C17.9485 45.9875 17.9281 45.9036 17.9669 45.8397L18.9582 44.1932C18.9971 44.1286 19.0804 44.1083 19.1445 44.1471C19.209 44.1857 19.23 44.2693 19.1912 44.3338L18.1999 45.9797C18.1742 46.0223 18.1294 46.0458 18.0831 46.0458Z" fill="#37A5DD"/>
<path d="M12.6823 43.7032C12.6532 43.7032 12.6237 43.6938 12.5993 43.6744C12.5395 43.6287 12.5289 43.5432 12.5749 43.4836L13.5574 42.2162C13.6038 42.157 13.6889 42.146 13.7484 42.1921C13.8076 42.2381 13.8182 42.3236 13.7725 42.3829L12.79 43.6506C12.7634 43.6851 12.723 43.7032 12.6823 43.7032Z" fill="#37A5DD"/>
<path d="M11.045 43.0694C11.0106 43.0694 10.9755 43.0559 10.9489 43.0296C10.8957 42.9767 10.8957 42.8905 10.9489 42.837L12.8511 40.9342C12.904 40.8813 12.9904 40.8813 13.0433 40.9342C13.0965 40.9875 13.0965 41.0736 13.0433 41.1266L11.1415 43.0296C11.1149 43.0559 11.0798 43.0694 11.045 43.0694Z" fill="#37A5DD"/>
<path d="M9.33484 42.0846C9.29758 42.0846 9.26063 42.0695 9.23339 42.0395C9.1836 41.9837 9.18799 41.8976 9.24372 41.8474L11.9055 39.4554C11.9612 39.405 12.047 39.4097 12.0974 39.4654C12.1475 39.5215 12.1428 39.6077 12.0868 39.6581L9.42564 42.0501C9.39965 42.073 9.36709 42.0846 9.33484 42.0846Z" fill="#37A5DD"/>
<path d="M7.97999 40.7324C7.94053 40.7324 7.90139 40.7152 7.87447 40.682C7.82687 40.6237 7.83564 40.5379 7.89419 40.4906L11.0582 37.9181C11.1164 37.8708 11.2022 37.8796 11.2495 37.9379C11.2968 37.9961 11.2877 38.082 11.2298 38.1293L8.06578 40.7018C8.04042 40.7221 8.01036 40.7324 7.97999 40.7324Z" fill="#37A5DD"/>
<path d="M6.63703 39.2777C6.59539 39.2777 6.55437 39.2589 6.52776 39.2225C6.48298 39.1618 6.49582 39.0769 6.55625 39.0321L9.77815 36.656C9.83889 36.6112 9.92375 36.6244 9.96852 36.6848C10.013 36.745 10.0001 36.8302 9.9394 36.875L6.71781 39.2514C6.69339 39.2692 6.66521 39.2777 6.63703 39.2777Z" fill="#37A5DD"/>
<path d="M5.46542 37.8413C5.42159 37.8413 5.3787 37.8203 5.35239 37.7812C5.31012 37.7188 5.32672 37.6343 5.38902 37.5926L8.17195 35.7127C8.23426 35.6708 8.31879 35.6871 8.36075 35.7494C8.40271 35.8117 8.38612 35.8963 8.32412 35.938L5.5412 37.8178C5.51772 37.8338 5.49141 37.8413 5.46542 37.8413Z" fill="#37A5DD"/>
<path d="M4.6103 36.054C4.56584 36.054 4.52263 36.0324 4.49664 35.9926C4.45531 35.93 4.47285 35.8457 4.53547 35.804L6.35714 34.6083C6.42008 34.567 6.5043 34.5845 6.54563 34.6475C6.58665 34.7101 6.56912 34.7947 6.50649 34.8358L4.68482 36.0318C4.66165 36.0468 4.63598 36.054 4.6103 36.054Z" fill="#37A5DD"/>
<path d="M3.88104 18.5343C3.85474 18.5343 3.82813 18.5268 3.80464 18.5108L2.26258 17.462C2.20027 17.4197 2.1843 17.3351 2.22626 17.2731C2.26884 17.2108 2.35307 17.1948 2.41538 17.2368L3.95744 18.2856C4.01975 18.3275 4.03572 18.4121 3.99376 18.4744C3.96778 18.5133 3.92488 18.5343 3.88104 18.5343Z" fill="#37A5DD"/>
<path d="M4.42118 20.3591C4.40114 20.3591 4.38078 20.3547 4.36199 20.3453L1.51238 18.9601C1.44506 18.9272 1.4172 18.846 1.44976 18.7781C1.48264 18.7107 1.56405 18.6825 1.63136 18.7154L4.48066 20.1006C4.54829 20.1335 4.57648 20.2147 4.54329 20.2826C4.5198 20.3309 4.47159 20.3591 4.42118 20.3591Z" fill="#37A5DD"/>
<path d="M4.76779 22.0382C4.75057 22.0382 4.73304 22.0348 4.71581 22.0276L0.958178 20.4817C0.888981 20.4535 0.855791 20.3736 0.884597 20.3044C0.912777 20.2345 0.992623 20.2013 1.06182 20.2301L4.81945 21.776C4.88896 21.8049 4.92215 21.8841 4.89366 21.954C4.87205 22.0066 4.82102 22.0382 4.76779 22.0382Z" fill="#37A5DD"/>
<path d="M4.80192 23.727C4.78626 23.727 4.76967 23.7242 4.75401 23.7182L0.583701 22.1588C0.513252 22.1328 0.477871 22.0545 0.504172 21.984C0.530473 21.9136 0.608753 21.8778 0.679202 21.9042L4.84951 23.4632C4.91996 23.4899 4.95534 23.5682 4.92935 23.6387C4.90869 23.6929 4.85703 23.727 4.80192 23.727Z" fill="#37A5DD"/>
<path d="M4.6103 25.3643C4.59621 25.3643 4.58212 25.3622 4.56803 25.3575L0.692353 24.0994C0.620963 24.0762 0.581827 23.9995 0.604997 23.9284C0.628168 23.8566 0.704876 23.8175 0.775952 23.8407L4.65226 25.0987C4.72333 25.1219 4.76247 25.1986 4.73962 25.2704C4.72083 25.3277 4.6676 25.3643 4.6103 25.3643Z" fill="#37A5DD"/>
<path d="M4.36578 27.2112C4.35138 27.2112 4.33635 27.209 4.32163 27.2036L0.707405 25.9613C0.636016 25.9371 0.598442 25.8595 0.622864 25.7887C0.647287 25.7175 0.724313 25.68 0.795702 25.7041L4.41025 26.9465C4.48101 26.9709 4.51889 27.0483 4.49447 27.1194C4.47506 27.1758 4.42246 27.2112 4.36578 27.2112Z" fill="#37A5DD"/>
<path d="M3.81566 28.8223C3.80188 28.8223 3.78748 28.8201 3.7737 28.8157L1.40659 28.0523C1.3352 28.0291 1.29606 27.9524 1.31923 27.8813C1.34177 27.8096 1.4188 27.7701 1.49019 27.7933L3.8573 28.557C3.929 28.5795 3.96814 28.6563 3.94497 28.728C3.92618 28.7857 3.87296 28.8223 3.81566 28.8223Z" fill="#37A5DD"/>
<path d="M44.7742 22.0286C44.7927 21.9124 44.8115 21.7956 44.8296 21.6784C44.8381 21.6201 44.8493 21.5619 44.8609 21.5036L44.8947 21.3291L44.9295 21.155L44.9686 20.9861L45.0075 20.8166C45.0147 20.7881 45.0194 20.7615 45.0278 20.7311L45.0526 20.6396C45.0839 20.5215 45.1155 20.4031 45.1471 20.285C45.1816 20.1569 45.2157 20.0285 45.2501 19.8997C45.268 19.8358 45.2833 19.771 45.2977 19.7058L45.3425 19.511C45.4587 18.99 45.5532 18.4606 45.6099 17.9237C45.6678 17.3865 45.6954 16.8436 45.6897 16.2982C45.6863 15.7525 45.6462 15.2052 45.5736 14.6602C45.4302 13.5697 45.1506 12.4887 44.7419 11.4518C44.3321 10.4152 43.7935 9.42312 43.1416 8.50559C42.4901 7.58743 41.7257 6.74288 40.8678 5.99858C40.0093 5.25553 39.0574 4.61178 38.0364 4.09491C37.0156 3.57678 35.9251 3.18771 34.801 2.94337C34.424 2.86224 34.0433 2.79739 33.6604 2.74852C33.8542 2.91173 34.0433 3.08026 34.2271 3.25349C34.5258 3.53574 34.8148 3.83616 35.0922 4.15067C35.9282 4.39532 36.7367 4.72393 37.5 5.12992C38.4256 5.62205 39.2879 6.2235 40.0603 6.91643C40.8331 7.60936 41.5172 8.39157 42.0959 9.23642C42.6745 10.081 43.147 10.9885 43.5039 11.9304C43.8599 12.8727 44.0932 13.851 44.2134 14.8325C44.3365 15.8142 44.3239 16.8013 44.2178 17.7671C44.1639 18.2501 44.076 18.7272 43.9692 19.1971L43.9275 19.3728C43.9144 19.4314 43.9 19.49 43.8834 19.5479C43.8518 19.6639 43.8205 19.7798 43.7885 19.8957C43.7547 20.0213 43.7209 20.1466 43.6868 20.2719L43.6623 20.363C43.6542 20.3931 43.6467 20.4285 43.6389 20.4608L43.5925 20.6591L43.5468 20.8574L43.508 21.0522L43.4704 21.2464C43.4573 21.311 43.445 21.3758 43.4353 21.441C43.415 21.5707 43.3943 21.701 43.374 21.8303C43.3577 21.9607 43.3417 22.091 43.3261 22.2207C43.2694 22.7413 43.2396 23.2613 43.2393 23.7791C43.2428 24.2963 43.2731 24.8101 43.3292 25.3175C43.3859 25.8253 43.4757 26.3256 43.5853 26.8168C43.6141 26.9393 43.6429 27.0615 43.6721 27.1839C43.7056 27.3045 43.7387 27.4254 43.7719 27.5461C43.8032 27.6585 43.8345 27.7707 43.8655 27.8831C43.8962 27.9959 43.9319 28.1146 43.9545 28.2174C43.9801 28.3239 44.0055 28.4301 44.0312 28.536C44.0537 28.6453 44.0763 28.7546 44.0988 28.8633C44.1226 28.9723 44.1401 29.082 44.1586 29.1916C44.1758 29.3006 44.1984 29.4096 44.2109 29.5193C44.3227 30.299 44.36 31.0771 44.329 31.8421C44.5059 31.6219 44.6768 31.3929 44.8409 31.157C45.1192 30.7576 45.3722 30.3394 45.6008 29.9058C45.5952 29.8379 45.5895 29.7699 45.583 29.7019C45.5689 29.5813 45.5542 29.4601 45.5401 29.3388C45.5279 29.2173 45.5053 29.0967 45.4878 28.9755C45.4696 28.8545 45.4518 28.7327 45.4273 28.6124C45.4045 28.4915 45.3813 28.3702 45.3581 28.2493C45.3306 28.1259 45.3027 28.0028 45.2745 27.8791C45.2473 27.7509 45.2166 27.6425 45.1866 27.5266C45.1565 27.4098 45.1258 27.2933 45.0954 27.1761C45.0666 27.0671 45.0381 26.9578 45.0093 26.8487C44.9846 26.7382 44.9599 26.6279 44.9348 26.517C44.8409 26.0731 44.7645 25.6223 44.7178 25.165C44.6709 24.7076 44.6471 24.2456 44.6468 23.7801C44.6505 23.3149 44.6774 22.8472 44.73 22.3795C44.7448 22.263 44.7595 22.1458 44.7742 22.0286ZM43.9626 34.3657C43.739 35.2528 43.4234 36.0996 43.0324 36.8868C42.8558 37.2452 42.6613 37.5897 42.4584 37.9249C42.2524 38.2576 42.0339 38.5781 41.8056 38.8866C41.7483 38.9634 41.6888 39.0379 41.6306 39.1137L41.5432 39.2265L41.4524 39.3368C41.392 39.4098 41.3319 39.4824 41.2717 39.5551C41.2094 39.6259 41.1471 39.6967 41.0854 39.7672C41.0544 39.8023 41.0244 39.8383 40.9925 39.8725L40.897 39.9746C40.8331 40.0426 40.7701 40.1115 40.706 40.1779C40.5741 40.3085 40.4473 40.4423 40.3121 40.566C40.0481 40.8204 39.7713 41.0538 39.4952 41.2802C39.4247 41.3351 39.3543 41.3899 39.2844 41.4447L39.1792 41.5262L39.0728 41.6042C39.0017 41.6565 38.9303 41.7081 38.8599 41.7602C38.7875 41.8096 38.7158 41.8588 38.6438 41.908C38.0693 42.3015 37.4765 42.631 36.8832 42.912C35.6953 43.4734 34.4967 43.8132 33.3673 43.9843C32.8021 44.0707 32.2536 44.1165 31.7278 44.129C31.2021 44.14 30.6993 44.1187 30.224 44.0748C30.105 44.0623 29.9873 44.0545 29.872 44.0385C29.7565 44.0231 29.6428 44.0081 29.5304 43.9937C29.4183 43.9783 29.3088 43.9574 29.2001 43.9404C29.1459 43.9314 29.0918 43.9226 29.0385 43.9135C28.985 43.9041 28.9327 43.8925 28.8801 43.8822C28.7755 43.8612 28.6725 43.8405 28.5708 43.8198C28.4702 43.796 28.371 43.7725 28.2739 43.7497C28.175 43.7259 28.0782 43.7027 27.9827 43.6804C27.9351 43.6685 27.8875 43.6572 27.8406 43.6457C27.7927 43.635 27.7454 43.624 27.6981 43.6137C26.9466 43.4467 26.2991 43.3678 25.7734 43.3305C25.2471 43.2932 24.8435 43.2964 24.572 43.3011C24.4361 43.3039 24.3334 43.3083 24.2646 43.312C24.1957 43.3149 24.1606 43.3164 24.1606 43.3164C24.1271 43.3183 24.0989 43.3456 24.098 43.3803C24.0967 43.4163 24.1252 43.447 24.1612 43.448H24.1628C24.1628 43.448 24.1975 43.4492 24.2658 43.4514C24.3334 43.4536 24.4352 43.4571 24.5695 43.4649C24.8369 43.4803 25.2343 43.5059 25.7468 43.5802C26.2584 43.6529 26.8878 43.7688 27.6032 43.978C27.6477 43.9912 27.6928 44.004 27.7379 44.0175C27.7836 44.0319 27.8302 44.0463 27.8769 44.061C27.9711 44.0899 28.067 44.1193 28.1643 44.1494C28.2633 44.1788 28.3638 44.2092 28.4662 44.2399C28.5695 44.2668 28.6741 44.2944 28.7808 44.3229C28.8344 44.3367 28.8876 44.3517 28.9421 44.3646C28.9969 44.3771 29.052 44.3896 29.1074 44.4025C29.2186 44.4266 29.3307 44.4545 29.4459 44.4774C29.5614 44.499 29.6785 44.5212 29.7972 44.5438C29.9156 44.5666 30.0374 44.5817 30.1601 44.6017C30.6517 44.6735 31.1746 44.7267 31.726 44.7421C32.2767 44.7565 32.855 44.7389 33.4553 44.6769C34.0552 44.6143 34.6767 44.5077 35.3104 44.3499C35.9445 44.1913 36.5889 43.9755 37.2351 43.7039C37.8817 43.4323 38.5286 43.1009 39.1608 42.7034C39.2397 42.6539 39.3192 42.6035 39.3984 42.5536C39.4764 42.501 39.5546 42.4481 39.6332 42.3951L39.751 42.3152L39.8675 42.2322C39.9445 42.1762 40.0221 42.1198 40.1001 42.0637C40.4057 41.8306 40.7119 41.5888 41.0056 41.3241C42.1888 40.2778 43.2606 38.9668 44.0769 37.4225C44.4833 36.6506 44.8277 35.8233 45.0886 34.9509C45.2927 34.2698 45.4436 33.5612 45.5382 32.8351C45.3794 33.0162 45.2169 33.1929 45.051 33.3633C44.7122 33.7094 44.3471 34.0459 43.9626 34.3657ZM19.8171 3.73529C19.949 3.76881 20.0817 3.79888 20.2129 3.83647L20.6055 3.94956L21.011 4.06578C21.146 4.10368 21.2884 4.13626 21.4271 4.17197C22.5356 4.4373 23.6765 4.56668 24.8213 4.55039C25.393 4.54162 25.9654 4.49682 26.5327 4.41726L26.7459 4.3875L26.9576 4.35053C27.0994 4.32609 27.2407 4.30197 27.3809 4.27065C27.5209 4.23963 27.6621 4.21426 27.8011 4.17729L28.2101 4.07643L28.6149 3.97525L29.0041 3.89286C29.2659 3.84305 29.532 3.79481 29.7978 3.76098C30.3298 3.68862 30.8646 3.64946 31.3981 3.64319C31.648 3.63975 31.8975 3.64414 32.1462 3.65573C32.0162 3.54609 31.8838 3.43863 31.7498 3.33494C31.4576 3.10783 31.1536 2.89388 30.843 2.69434C30.4447 2.72942 30.0486 2.78142 29.6554 2.85033C29.3714 2.89795 29.0924 2.95966 28.8109 3.02451L28.3876 3.13195L27.9868 3.24817L27.5898 3.36408C27.4614 3.40418 27.3293 3.433 27.199 3.46745C27.0688 3.50285 26.9369 3.53042 26.8048 3.55892L26.6069 3.60215L26.4078 3.63818C25.8761 3.73561 25.3379 3.80013 24.7968 3.83052C23.715 3.88753 22.6217 3.80765 21.5571 3.59432C21.4253 3.56519 21.2956 3.54013 21.1613 3.50755L20.7615 3.40731L20.3491 3.30331C20.212 3.26854 20.0723 3.24222 19.9342 3.21089C19.38 3.09499 18.8193 3.0126 18.2566 2.96405C16.0041 2.7645 13.7221 3.15169 11.6838 4.04416C10.664 4.49056 9.70306 5.05755 8.82604 5.72667C8.38674 6.05998 7.96843 6.4196 7.57422 6.80146C7.17876 7.18239 6.80554 7.58523 6.45924 8.00782C5.76476 8.85236 5.17142 9.77334 4.69424 10.7466C4.45721 11.2334 4.24805 11.7331 4.06989 12.2421C3.89236 12.7512 3.74489 13.2696 3.62841 13.7931C3.62402 13.8119 3.62058 13.8304 3.6162 13.8485C3.73643 13.7273 3.86042 13.6032 3.99099 13.4842C4.125 13.3545 4.26308 13.2345 4.39647 13.118L4.49635 13.0309C4.50011 13.0278 4.50292 13.0253 4.50637 13.0225C4.68015 12.3302 4.91341 11.6479 5.20617 10.986C5.62762 10.0365 6.17149 9.13116 6.8215 8.29852C8.11966 6.63293 9.85679 5.26336 11.8422 4.40942C12.8326 3.979 13.8828 3.67733 14.9561 3.51412C15.4928 3.43362 16.0354 3.38726 16.579 3.37567C17.1225 3.36439 17.6676 3.39258 18.2087 3.4521C18.7494 3.51287 19.287 3.60874 19.8171 3.73529ZM23.6599 43.3337C23.6599 43.3337 23.6255 43.334 23.5569 43.3352C23.4887 43.3355 23.385 43.3384 23.2488 43.3434C22.978 43.3553 22.5747 43.3794 22.0518 43.4496C21.79 43.4843 21.4992 43.5332 21.1807 43.5984C21.0217 43.6319 20.8554 43.6682 20.6832 43.7114C20.5135 43.7512 20.3372 43.7926 20.1534 43.8355C20.0629 43.8533 19.9702 43.8718 19.876 43.8903C19.7821 43.9091 19.6866 43.9285 19.587 43.9429C19.4884 43.9592 19.3879 43.9758 19.2858 43.9924C19.184 44.009 19.0794 44.02 18.9739 44.0347C18.7629 44.0651 18.5434 44.0805 18.3186 44.1024C18.0928 44.1149 17.8611 44.1334 17.6225 44.1362C17.4604 44.14 17.2947 44.1406 17.1269 44.1384C17.3768 44.3267 17.6351 44.5056 17.899 44.6738C18.0603 44.6578 18.2187 44.6381 18.3737 44.6193C18.606 44.5823 18.8318 44.5525 19.0484 44.5077C19.483 44.43 19.8838 44.3251 20.2577 44.223C20.4399 44.1675 20.6149 44.1137 20.7831 44.0623C20.9475 44.0093 21.1062 43.962 21.2587 43.9182C21.5637 43.8317 21.8445 43.7653 22.0972 43.7099C22.6026 43.6002 22.9971 43.5451 23.2632 43.5106C23.3957 43.494 23.4965 43.4824 23.5651 43.4756C23.6333 43.4687 23.6678 43.4649 23.6678 43.4649C23.7013 43.4611 23.7276 43.4323 23.7266 43.3985C23.7263 43.3618 23.6966 43.333 23.6599 43.3337ZM13.5656 43.5861C12.7396 43.3355 11.8955 42.9875 11.0629 42.5261C10.7745 42.3691 10.4915 42.1925 10.2065 42.0108C9.92599 41.8219 9.64357 41.627 9.37022 41.4115C9.09343 41.2007 8.82698 40.9689 8.56021 40.7308C8.49508 40.67 8.42964 40.6086 8.36389 40.5475L8.26557 40.4545L8.16944 40.3593C8.10557 40.295 8.04107 40.2308 7.97657 40.1666C7.91457 40.1002 7.85132 40.0341 7.7887 39.9671C6.7927 38.8935 5.91536 37.6013 5.29854 36.1228C5.14605 35.7528 5.00296 35.3747 4.88273 34.9847C4.85017 34.8882 4.82512 34.7889 4.796 34.6909L4.7531 34.5427C4.73933 34.4935 4.72774 34.4437 4.71522 34.3936C4.69017 34.2936 4.66355 34.194 4.64007 34.0935C4.61815 33.9923 4.59623 33.8911 4.57432 33.7896C4.49416 33.3824 4.42183 32.9689 4.38113 32.5479C4.36735 32.4432 4.36203 32.337 4.35295 32.2318C4.34418 32.1259 4.33447 32.0197 4.33134 31.9132C4.32665 31.8067 4.32195 31.6999 4.31694 31.593C4.316 31.4859 4.31475 31.3785 4.31381 31.271C4.31318 30.4108 4.40054 29.5356 4.57682 28.6635C4.58809 28.6086 4.59686 28.5538 4.6097 28.4993L4.64758 28.3364C4.67326 28.2277 4.69455 28.1174 4.72429 28.0094C4.78378 27.7851 4.84327 27.5598 4.90308 27.3337L4.94817 27.1623L4.99044 26.9778L5.0324 26.7927C5.04649 26.7313 5.06089 26.6692 5.07153 26.6085C5.09439 26.4866 5.11725 26.3648 5.14042 26.2423C5.16171 26.1195 5.1783 25.9957 5.1974 25.8723C5.21744 25.7489 5.23122 25.6248 5.245 25.5002C5.25846 25.3758 5.27568 25.2511 5.28351 25.1258C5.29353 25.0005 5.30324 24.8749 5.31294 24.7493C5.31826 24.6234 5.32359 24.4971 5.32891 24.3709C5.34206 23.8653 5.33079 23.3562 5.29009 22.8459C5.24625 22.3366 5.1733 21.8269 5.07435 21.3197C5.04743 21.1938 5.02081 21.0669 4.99388 20.9407C4.96445 20.8144 4.93126 20.6888 4.89995 20.5632C4.8702 20.437 4.83107 20.3126 4.79569 20.1876C4.76062 20.0676 4.72555 19.9473 4.69048 19.8267L4.63756 19.6457C4.62066 19.5858 4.60062 19.5232 4.58747 19.4665C4.55772 19.3506 4.52798 19.2347 4.49854 19.1188C4.46911 19.0019 4.445 18.881 4.41776 18.7617C4.38958 18.6429 4.3686 18.522 4.34606 18.4011C4.25776 17.9187 4.19075 17.4284 4.16007 16.9326C4.15161 16.8035 4.14536 16.6741 4.14035 16.5441C3.85385 16.9413 3.59209 17.3548 3.35882 17.7802C3.38043 18.0368 3.40923 18.2924 3.44367 18.5461C3.46152 18.6765 3.47843 18.8065 3.50254 18.9352C3.52571 19.0646 3.54543 19.1927 3.57174 19.3227C3.59929 19.4527 3.62685 19.5824 3.6544 19.7124C3.66755 19.7791 3.68383 19.8368 3.69886 19.8988L3.74395 20.082C3.77432 20.2042 3.80469 20.3264 3.83475 20.4479C3.86293 20.5654 3.89487 20.6819 3.91741 20.8C3.94183 20.9175 3.96626 21.035 3.99068 21.1524C4.01135 21.2705 4.03232 21.3883 4.05268 21.5058C4.12876 21.9776 4.17792 22.45 4.20516 22.9205C4.25213 23.8618 4.20234 24.7947 4.05549 25.6988C4.03608 25.8115 4.01886 25.9246 3.99725 26.0365C3.9744 26.1483 3.95216 26.2598 3.92931 26.3713C3.91897 26.4277 3.90583 26.4813 3.8933 26.5352L3.85479 26.6968L3.8169 26.8578L3.77025 27.0289C3.70731 27.2585 3.64438 27.4878 3.58175 27.7155C3.54856 27.833 3.52383 27.9527 3.4944 28.0711L3.45307 28.2484C3.43929 28.3076 3.42896 28.3674 3.41643 28.4266C3.2198 29.3771 3.12994 30.3359 3.13808 31.277C3.14716 32.2186 3.25268 33.1434 3.4468 34.0305C3.47217 34.1408 3.49784 34.2514 3.5232 34.3613C3.55044 34.4709 3.58051 34.5796 3.60931 34.6883C3.62403 34.7422 3.63749 34.797 3.65346 34.8509L3.70199 35.0116C3.73549 35.1181 3.76461 35.2259 3.80156 35.3308C3.93839 35.7544 4.09964 36.1644 4.27154 36.5644C4.97259 38.1608 5.94949 39.5432 7.0554 40.6694C7.12491 40.7396 7.19442 40.8094 7.26362 40.879C7.335 40.9463 7.40577 41.014 7.47653 41.0807L7.58236 41.1809L7.6907 41.278C7.76303 41.3419 7.83535 41.4062 7.90737 41.4701C8.20075 41.7179 8.49539 41.9562 8.79973 42.1733C9.10001 42.3948 9.40936 42.5947 9.71621 42.7867C10.0271 42.9728 10.3365 43.1498 10.6508 43.3058C11.2767 43.6215 11.9052 43.8815 12.5261 44.0858C13.1476 44.2882 13.7606 44.4382 14.3552 44.5428C14.4094 44.5525 14.463 44.5613 14.5168 44.5698C14.1849 44.2587 13.8674 43.9307 13.5656 43.5861Z" fill="#37A5DD"/>
<path d="M22.7331 0.146472C22.7331 0.146472 22.594 0.159318 22.3245 0.185945C22.0549 0.217898 21.6557 0.269902 21.1393 0.37547C21.011 0.403663 20.8741 0.429661 20.7317 0.466939C20.6606 0.484168 20.587 0.502338 20.5122 0.521134C20.4373 0.540556 20.3613 0.562794 20.2833 0.584095C20.1264 0.625445 19.9652 0.67745 19.7955 0.729138C19.7112 0.755765 19.6258 0.785836 19.5384 0.815282C19.4507 0.844415 19.3621 0.875434 19.2726 0.909265C18.9119 1.03958 18.5305 1.19934 18.1335 1.39074C17.7358 1.58151 17.3216 1.80298 16.8998 2.0655C16.6894 2.19581 16.4778 2.33521 16.2648 2.48558C16.5407 2.46866 16.8168 2.45989 17.0927 2.45989C17.1481 2.45989 17.2045 2.46051 17.2605 2.46114C17.3263 2.41603 17.3927 2.37186 17.4578 2.32863C17.5492 2.26786 17.6397 2.20929 17.7299 2.1529C18.0799 1.93299 18.4222 1.74128 18.7519 1.57337C18.8489 1.52356 18.9444 1.47594 19.039 1.43083C19.1655 1.37006 19.2907 1.31243 19.4132 1.25886C19.6975 1.13199 19.9683 1.02454 20.2244 0.932133C20.3237 0.896108 20.4201 0.861959 20.5144 0.83032C20.7602 0.747933 20.9894 0.67902 21.1988 0.618874C21.3757 0.569379 21.5395 0.526462 21.6885 0.490437C21.79 0.466316 21.8842 0.444701 21.9713 0.425592C22.1169 0.39364 22.243 0.368582 22.3489 0.347593C22.6125 0.301231 22.7484 0.276793 22.7484 0.276793L22.7515 0.276477C22.7844 0.270212 22.8082 0.239829 22.8048 0.205371C22.801 0.169033 22.7691 0.142713 22.7331 0.146472ZM15.0234 3.9629C14.818 3.99423 14.6141 4.03088 14.4109 4.07223C14.3887 4.09541 14.3658 4.11797 14.3439 4.14115C13.9278 4.57689 13.5242 5.05869 13.1419 5.58653C13.093 5.652 13.0473 5.71966 13.0007 5.78701C12.9543 5.85498 12.9074 5.92327 12.8604 5.99187C12.7686 6.13096 12.6763 6.27601 12.5864 6.41823C12.5013 6.56013 12.4155 6.70297 12.329 6.84676C12.2871 6.91536 12.2454 6.98522 12.2035 7.05476L12.1399 7.1594L12.0726 7.26215C11.7169 7.81254 11.3111 8.35541 10.8496 8.87448C10.3893 9.3948 9.86988 9.88725 9.3019 10.3468C9.16162 10.4643 9.01258 10.5723 8.86542 10.6839C8.79215 10.7409 8.71482 10.7923 8.63904 10.8455C8.56233 10.8991 8.48719 10.9539 8.40922 11.0056C8.33095 11.0566 8.25235 11.1074 8.17345 11.1588L8.05478 11.2361L7.9358 11.3069C7.85721 11.3552 7.77736 11.4031 7.69815 11.4513C7.61423 11.4993 7.52468 11.5478 7.43858 11.5967C7.2623 11.6944 7.08477 11.7931 6.90629 11.8924C6.81393 11.9419 6.72563 11.9999 6.63483 12.0531C6.54434 12.1086 6.45228 12.1609 6.36367 12.2185C6.18583 12.3357 6.00391 12.4488 5.8295 12.5747C5.74215 12.6373 5.65291 12.6978 5.56587 12.7623C5.47914 12.8275 5.39303 12.8933 5.30599 12.9591C5.21832 13.0233 5.1344 13.0934 5.04955 13.162C4.96501 13.2322 4.87859 13.2996 4.7953 13.3716C4.62998 13.517 4.46091 13.6604 4.30091 13.8152C4.13652 13.9656 3.98028 14.1259 3.82185 14.2851C3.74294 14.3662 3.66779 14.4499 3.59046 14.5326L3.47492 14.6572L3.36345 14.7857C3.06162 15.1256 2.7817 15.4908 2.51273 15.868C2.24252 16.2455 1.99579 16.6436 1.76377 17.0549C1.53113 17.4659 1.31947 17.8929 1.1316 18.3349C0.943111 18.7763 0.771843 19.2302 0.630004 19.6969C0.486287 20.1631 0.364173 20.6398 0.266796 21.1257C0.170984 21.6113 0.10022 22.1059 0.0560713 22.6065C-0.0366092 23.607 -0.0131256 24.6317 0.116189 25.6557C0.248008 26.6791 0.497871 27.7013 0.862644 28.6937C1.04362 29.1905 1.26061 29.6773 1.50295 30.1538C1.74593 30.6297 2.01708 31.0942 2.31642 31.544C2.44416 31.7367 2.57849 31.9262 2.71813 32.1123C2.69935 31.8363 2.68713 31.5591 2.68494 31.2819C2.67993 30.7036 2.71187 30.1247 2.77794 29.5511C2.555 29.1119 2.35805 28.6615 2.18898 28.2032C1.86365 27.3113 1.63446 26.3935 1.51172 25.4715C1.45035 25.0104 1.41309 24.5493 1.39994 24.0898C1.38554 23.6308 1.39775 23.1738 1.43376 22.7214C1.56652 20.9099 2.09316 19.1841 2.89817 17.6777C3.7038 16.1678 4.79718 14.8847 6.03428 13.8797C6.11225 13.8171 6.1899 13.7551 6.26724 13.6933C6.34551 13.6323 6.42598 13.574 6.50457 13.5148C6.66113 13.3939 6.8252 13.2855 6.98551 13.1733C7.06566 13.1169 7.14927 13.0665 7.23067 13.0129C7.31302 12.9616 7.39286 12.9055 7.47678 12.8573C7.64836 12.7548 7.81869 12.6533 7.9884 12.5528C8.07482 12.5008 8.15905 12.4522 8.24578 12.3983C8.3347 12.3416 8.423 12.2846 8.51098 12.2282L8.6428 12.1433L8.76867 12.0559C8.85227 11.9974 8.93556 11.9394 9.01884 11.8811C9.10088 11.8219 9.18135 11.7602 9.26182 11.7001C9.34166 11.6393 9.42401 11.5807 9.50041 11.5165C9.65602 11.3906 9.81289 11.2681 9.96005 11.1362C11.1599 10.1068 12.1027 8.92116 12.8112 7.71511L12.8779 7.60265C12.8992 7.56412 12.9202 7.52653 12.9409 7.48863C12.9828 7.41219 13.0245 7.33638 13.0658 7.2612C13.1453 7.11553 13.2239 6.97144 13.3019 6.82859C13.3811 6.69013 13.4578 6.55793 13.5377 6.42386C13.5793 6.35745 13.6206 6.29198 13.6616 6.22588C13.7033 6.16041 13.743 6.09432 13.7866 6.03041C14.1238 5.51635 14.4845 5.04271 14.8593 4.61167C15.0778 4.35918 15.3014 4.12204 15.5271 3.89837C15.3584 3.91654 15.1902 3.93784 15.0234 3.9629ZM48.0881 20.0199C47.8313 19.056 47.4637 18.1356 47.0151 17.2745C46.7902 16.8444 46.5394 16.4318 46.2733 16.0353C46.2266 15.9654 46.1791 15.8971 46.1312 15.8294C46.138 15.9851 46.1421 16.1408 46.1427 16.2949C46.1487 16.8485 46.1211 17.413 46.0604 17.9725C46.0598 17.9818 46.0582 17.9922 46.0576 18.0013C46.432 18.7346 46.7433 19.5137 46.9756 20.3297C47.4813 22.0868 47.6338 24.0071 47.3585 25.9239C47.0855 27.8379 46.3751 29.7491 45.2134 31.4156C44.9241 31.8329 44.6088 32.2354 44.2666 32.6176C43.9237 32.9988 43.5561 33.3619 43.1654 33.7027C42.774 34.042 42.3644 34.3656 41.9289 34.6556C41.8221 34.7311 41.7094 34.7988 41.5998 34.8709C41.4905 34.9435 41.3778 35.0103 41.2645 35.0773C41.1496 35.1456 41.0343 35.2142 40.9197 35.2828L40.7466 35.3849L40.6599 35.4366L40.5731 35.4914C40.4576 35.566 40.3405 35.6387 40.2256 35.7148C40.1132 35.7922 40.0008 35.8698 39.888 35.9478C39.7769 36.0271 39.6682 36.1098 39.5577 36.1912L39.4754 36.2523L39.3952 36.3169L39.2343 36.4447C38.8063 36.7883 38.3983 37.1573 38.0128 37.5511C37.2413 38.3377 36.5653 39.2236 35.9955 40.1774C35.858 40.4149 35.7206 40.6533 35.5831 40.8911C35.4422 41.1219 35.3019 41.3484 35.1463 41.5718C34.8395 42.0178 34.5079 42.4476 34.1481 42.8533C33.9518 43.0754 33.7467 43.2906 33.5344 43.498C33.7852 43.4548 34.0345 43.4037 34.2818 43.3451C34.3444 43.2753 34.4067 43.2045 34.4681 43.1334C34.8326 42.7083 35.172 42.2634 35.4826 41.7998C35.6391 41.5705 35.786 41.3284 35.93 41.0906C36.0662 40.8535 36.2021 40.6163 36.3377 40.3795C36.6114 39.9153 36.9135 39.4682 37.242 39.0435C37.5704 38.6187 37.923 38.2136 38.3025 37.8374C38.681 37.4612 39.0815 37.1081 39.5004 36.782C39.7086 36.6176 39.9259 36.4653 40.1429 36.3143C40.2531 36.2417 40.364 36.169 40.4742 36.0966C40.5857 36.0265 40.6974 35.9601 40.8092 35.8915L40.8931 35.8407L40.9805 35.7915L41.1558 35.6938C41.2729 35.6283 41.39 35.5632 41.5071 35.4986C41.6264 35.4325 41.7451 35.3671 41.8603 35.2956C41.9768 35.2242 42.0948 35.1575 42.2082 35.0826C42.6681 34.7938 43.1078 34.4752 43.5289 34.1356C43.9488 33.7951 44.3492 33.4324 44.7262 33.0474C45.101 32.6611 45.4523 32.2539 45.778 31.8285C46.4286 30.978 46.9756 30.0542 47.3989 29.085C47.6112 28.601 47.7953 28.1067 47.9506 27.6054C47.9873 27.4795 48.0277 27.3545 48.0615 27.228C48.095 27.1017 48.1282 26.9749 48.1617 26.8489C48.1908 26.7214 48.2202 26.5946 48.2493 26.4674C48.2769 26.3399 48.3001 26.2118 48.3254 26.084C48.7065 24.0378 48.6116 21.9446 48.0881 20.0199ZM43.3601 12.9296C43.2931 12.8779 43.2255 12.8259 43.1585 12.7749C43.0686 12.7069 42.9759 12.6433 42.8848 12.5778C42.7045 12.4447 42.5157 12.3269 42.3316 12.2028C42.2373 12.143 42.1403 12.0851 42.0444 12.0259L41.9013 11.9378C41.8534 11.909 41.809 11.8852 41.7626 11.8589C41.5798 11.7549 41.3979 11.6518 41.2166 11.5494C40.5205 11.1575 39.8793 10.702 39.2916 10.2115C39.2164 10.1513 39.1479 10.0859 39.0752 10.0235C39.0041 9.95993 38.9312 9.89915 38.8629 9.83336C38.7267 9.70242 38.5855 9.57681 38.4565 9.44148C38.3901 9.37539 38.3244 9.30866 38.2589 9.24288C38.196 9.17427 38.1328 9.1066 38.0698 9.03831C38.0069 8.97065 37.9443 8.90268 37.8851 8.83251C37.825 8.76265 37.7655 8.6931 37.7054 8.62356C37.6449 8.55527 37.5904 8.48228 37.5331 8.4118C37.4768 8.34069 37.4179 8.27114 37.3641 8.19941C37.3102 8.12642 37.2564 8.05469 37.2025 7.98295L37.1223 7.87488L37.0456 7.76523C36.9949 7.69162 36.9442 7.61863 36.8941 7.54595C36.8424 7.47359 36.7986 7.4006 36.751 7.32824C36.704 7.25463 36.6571 7.1854 36.6101 7.10959C36.5638 7.0319 36.5174 6.95421 36.4714 6.87715C36.3784 6.72115 36.286 6.56639 36.194 6.41321L36.1235 6.2948C36.1 6.25627 36.0744 6.21836 36.0499 6.17983C36.0002 6.10371 35.951 6.02759 35.9018 5.95178C35.7036 5.65011 35.4945 5.3616 35.2791 5.08531C34.8485 4.53366 34.3905 4.03213 33.9158 3.58355C33.4408 3.1359 32.9508 2.73932 32.4583 2.39192C31.4701 1.69993 30.4769 1.19683 29.546 0.850367C29.0807 0.674629 28.6324 0.532722 28.2043 0.424962C28.1514 0.410865 28.0985 0.396456 28.0459 0.3833C27.9933 0.36889 27.9404 0.358549 27.8884 0.346331C27.7845 0.322837 27.6821 0.299658 27.5816 0.276477C27.4801 0.257369 27.3806 0.238573 27.2826 0.219778C27.1849 0.201295 27.0887 0.183441 26.9932 0.169971C26.2358 0.0477999 25.5846 0.00832597 25.0582 0.0020608C24.7946 -0.00451763 24.5619 0.00645406 24.3622 0.00989991C24.1615 0.022117 23.9918 0.0290017 23.8578 0.0399658C23.7707 0.0484237 23.6978 0.0553206 23.6389 0.0609593C23.5143 0.0728631 23.4504 0.079123 23.4504 0.079123C23.4316 0.0810026 23.4156 0.0904057 23.4053 0.104189C23.3959 0.115466 23.3909 0.129565 23.3909 0.144914C23.3909 0.153059 23.3925 0.160882 23.3953 0.168087C23.4044 0.192835 23.4288 0.211007 23.4573 0.21038C23.4573 0.21038 23.5274 0.209757 23.6643 0.209443C23.72 0.20913 23.7876 0.208502 23.8659 0.207876C24.0005 0.209129 24.1655 0.215084 24.3622 0.219156C24.5491 0.23106 24.7633 0.237634 25.0037 0.261755C25.0172 0.263008 25.031 0.264261 25.0444 0.265828C25.119 0.272406 25.195 0.280237 25.2743 0.288695C25.6522 0.329105 26.0852 0.391136 26.5655 0.487933C26.6529 0.505475 26.7424 0.524576 26.8336 0.544938C26.8611 0.55089 26.8887 0.557154 26.9168 0.563733C27.008 0.582528 27.0994 0.606029 27.193 0.630776C27.2863 0.655524 27.3818 0.679647 27.4782 0.705334C27.5737 0.732901 27.6711 0.761406 27.7704 0.790226C27.8155 0.804009 27.8606 0.815597 27.9056 0.83032C27.91 0.831886 27.915 0.83377 27.9194 0.835023C27.9695 0.851 28.0196 0.86791 28.07 0.884199C28.1032 0.89485 28.1367 0.905504 28.1702 0.917095C28.5366 1.0377 28.9157 1.18587 29.3059 1.35754C29.3153 1.3613 29.3247 1.36505 29.3334 1.36912C29.4111 1.40233 29.4887 1.43773 29.567 1.47469C29.7085 1.54048 29.851 1.61159 29.9953 1.68301C30.1062 1.74191 30.2176 1.80173 30.331 1.86156C30.424 1.912 30.516 1.96651 30.6093 2.02008C30.6291 2.03198 30.6488 2.04325 30.6688 2.05453C30.7352 2.094 30.8019 2.13379 30.8686 2.17482C31.255 2.41196 31.6426 2.67823 32.0271 2.97614C32.478 3.3248 32.9232 3.71825 33.3509 4.15869C33.7793 4.59819 34.1913 5.08343 34.5749 5.61565C34.7659 5.88192 34.9519 6.15853 35.1291 6.44672C35.1723 6.51877 35.2164 6.59145 35.2603 6.66444C35.2825 6.70078 35.3047 6.73681 35.3263 6.77408L35.3883 6.88686C35.4738 7.04036 35.5599 7.19542 35.647 7.35205C35.6902 7.43036 35.734 7.50992 35.7782 7.58918C35.8239 7.66906 35.8759 7.75271 35.9247 7.83447C35.9748 7.91654 36.0233 8.00206 36.0756 8.08131C36.1276 8.16119 36.1799 8.24139 36.2325 8.32158L36.3114 8.44249L36.395 8.5606C36.4504 8.63954 36.5068 8.71911 36.5631 8.79836C36.6192 8.87762 36.6806 8.95437 36.7391 9.03237C36.7992 9.10974 36.8562 9.19055 36.9195 9.26605C37.4132 9.88223 37.9674 10.4777 38.5937 11.0234C39.2205 11.5679 39.9056 12.0788 40.6564 12.5171C40.8368 12.6226 41.0181 12.7288 41.2009 12.8356C41.2454 12.8619 41.2939 12.8886 41.3356 12.9155L41.4611 12.9954C41.545 13.0487 41.6293 13.1007 41.7135 13.1558C41.8813 13.2723 42.0541 13.3829 42.2179 13.5073C42.3002 13.5693 42.3848 13.6285 42.4665 13.6918C42.5473 13.756 42.6284 13.8199 42.7101 13.8844C43.031 14.1476 43.3501 14.4195 43.6491 14.718C43.6848 14.7528 43.7199 14.7885 43.7553 14.8239C43.6726 14.177 43.5402 13.5427 43.3601 12.9296ZM32.086 45.2005C31.9629 45.2005 31.8377 45.199 31.7137 45.1959C31.6041 45.1927 31.4945 45.188 31.384 45.1821C31.0264 45.4029 30.6579 45.6065 30.2803 45.7914C29.7915 46.0291 29.288 46.2346 28.7733 46.4091C27.7431 46.754 26.6704 46.9673 25.5911 47.0475C23.4313 47.2045 21.2449 46.8201 19.2998 45.9442C18.8132 45.7265 18.3417 45.4784 17.8886 45.2021C17.4352 44.9274 17 44.6238 16.5867 44.2949C15.7585 43.6393 15.0224 42.8774 14.3877 42.0451C14.0709 41.6285 13.7784 41.1943 13.5129 40.7441C13.3808 40.5101 13.249 40.2764 13.1168 40.0431L13.0664 39.9541C13.0501 39.9247 13.0332 39.8952 13.0141 39.8639L12.9005 39.6778L12.7862 39.4924C12.748 39.4316 12.7085 39.3733 12.6697 39.3141C12.3575 38.8402 12.0203 38.3834 11.6537 37.9536C11.2873 37.5232 10.8959 37.116 10.4829 36.7341C10.07 36.3526 9.63661 35.9942 9.18166 35.669C9.12593 35.6271 9.06863 35.5876 9.01039 35.5481L8.83787 35.4297C8.72327 35.3489 8.60523 35.2753 8.48718 35.2013L8.3109 35.0889C8.25141 35.0529 8.19067 35.0181 8.13087 34.983C8.01564 34.9153 7.90042 34.8477 7.78519 34.7803C7.67153 34.7136 7.55819 34.6469 7.44453 34.5798C7.34089 34.5144 7.23787 34.4486 7.13455 34.3831C7.03091 34.3173 6.92727 34.2434 6.82395 34.1735C6.71968 34.1049 6.6198 34.0298 6.51929 33.9555C6.11819 33.6585 5.73307 33.3431 5.37237 33.0054C5.1845 32.8293 5.00321 32.648 4.82787 32.4619C4.8285 32.4707 4.82975 32.4798 4.83037 32.4888C4.83163 32.4935 4.83194 32.4992 4.83225 32.5045C4.87389 32.9343 4.94967 33.349 5.01855 33.6977L5.08211 33.9937C5.09652 34.0536 5.11155 34.1134 5.1272 34.1729C5.13597 34.2096 5.16352 34.3192 5.16791 34.338C5.17511 34.3653 5.18199 34.3925 5.1892 34.4191L5.23115 34.5651C5.24117 34.5983 5.25182 34.6359 5.26247 34.6735C5.26622 34.6863 5.26967 34.6986 5.27311 34.7108C5.42184 34.8264 5.57244 34.9401 5.72649 35.0504C5.83859 35.1299 5.95068 35.2111 6.06653 35.2859C6.18301 35.3614 6.29479 35.4391 6.41471 35.5137C6.53557 35.5873 6.65674 35.6609 6.77698 35.7348C6.89251 35.8 7.00774 35.8661 7.12359 35.9312C7.23788 35.9961 7.35216 36.0612 7.46645 36.1261C7.52187 36.1574 7.57697 36.1872 7.63145 36.2191L7.7924 36.3184C7.90011 36.3845 8.00844 36.4494 8.11271 36.5205L8.27114 36.6254C8.32468 36.6602 8.37697 36.695 8.42801 36.7322C8.84601 37.0204 9.24397 37.3387 9.62534 37.6789C10.0055 38.0191 10.3674 38.3837 10.7074 38.7694C11.0484 39.155 11.3622 39.566 11.6537 39.9936C11.6897 40.0465 11.7279 40.1001 11.7629 40.153L11.865 40.3134L11.9668 40.4735C11.9834 40.4992 12.0006 40.5286 12.0181 40.5581L12.0695 40.6461C12.2094 40.8842 12.3494 41.1216 12.4887 41.3603C12.7859 41.8449 13.114 42.3126 13.4684 42.7609C14.1764 43.6571 15.0018 44.4685 15.921 45.1576C16.3807 45.5022 16.8626 45.8174 17.3629 46.1012C17.8633 46.3834 18.3818 46.634 18.9141 46.8505C19.9796 47.2821 21.0986 47.5769 22.2346 47.7301C23.3706 47.8827 24.5241 47.8943 25.6581 47.7646C27.9285 47.5102 30.1203 46.6829 31.9704 45.3888C32.06 45.3265 32.148 45.2632 32.235 45.1987C32.1859 45.199 32.1361 45.2005 32.086 45.2005Z" fill="#1A75BC"/>
</g>
</g>
<defs>
<clipPath id="clip0_3215_21395">
<rect width="147" height="48" fill="white"/>
</clipPath>
</defs>
</svg>
